# xmcd
#
# Track frame offsets: 
#        150
#        14180
#        27956
#        44568
#        61328
#        78680
#        93115
#        110874
#        124805
#        141923
#        157030
#        171770
#        185096
#        199002
#        213416
#        229316
#        245475
#        262384
#
# Disc length: 3711 seconds
#
# Revision: 2
# Processed by: cddbd v1.5.2PL0 Copyright (c) Steve Scherf et al.
# Submitted via: ExactAudioCopy v1.0b3
#
DISCID=190e7d12
DTITLE=GARO - GOLDEN☆BEST GARO～アンソロジー1971-1977～ Blu-spec CD Disc 1 MHC
DTITLE=L-20070-1
DYEAR=2002
DGENRE=JPop
TTITLE0=たんぽぽ (Single Mix)
TTITLE1=一人でいくさ (Single Mix)
TTITLE2=地球はメリー・ゴーランド
TTITLE3=水色の世界
TTITLE4=美しすぎて (Single Version)
TTITLE5=学生街の喫茶店
TTITLE6=涙はいらない
TTITLE7=明日になれば (Single Version)
TTITLE8=君の誕生日
TTITLE9=散歩
TTITLE10=ロマンス
TTITLE11=二人だけの昼下がり
TTITLE12=一枚の楽譜
TTITLE13=憶えているかい
TTITLE14=姫鏡台
TTITLE15=僕は死なないだろう
TTITLE16=喪失
TTITLE17=春のボート (未発表曲)
EXTD=
EXTT0=
EXTT1=
EXTT2=
EXTT3=
EXTT4=
EXTT5=
EXTT6=
EXTT7=
EXTT8=
EXTT9=
EXTT10=
EXTT11=
EXTT12=
EXTT13=
EXTT14=
EXTT15=
EXTT16=
EXTT17=
PLAYORDER=
